<svg width="76" height="88" viewBox="0 0 76 88" fill="none" xmlns="http://www.w3.org/2000/svg">
<path d="M25.5 6.50854V0.258545H50.5V6.50854H25.5ZM34.875 53.071H41.125V29.1127H34.875V53.071ZM38 87.6544C32.8611 87.6544 28.0174 86.6648 23.4687 84.6856C18.9201 82.7065 14.9444 80.0155 11.5417 76.6127C8.13889 73.2099 5.44792 69.2342 3.46875 64.6856C1.48958 60.137 0.5 55.2933 0.5 50.1544C0.5 45.0155 1.48958 40.1717 3.46875 35.6231C5.44792 31.0745 8.13889 27.0988 11.5417 23.696C14.9444 20.2933 18.9201 17.6023 23.4687 15.6231C28.0174 13.644 32.8611 12.6544 38 12.6544C42.6528 12.6544 47.0278 13.4356 51.125 14.9981C55.2222 16.5606 58.8681 18.7308 62.0625 21.5085L67.375 16.196L71.75 20.571L66.4375 25.8835C68.9375 28.6613 71.0729 32.0294 72.8437 35.9877C74.6146 39.946 75.5 44.6683 75.5 50.1544C75.5 55.2933 74.5104 60.137 72.5312 64.6856C70.5521 69.2342 67.8611 73.2099 64.4583 76.6127C61.0556 80.0155 57.0799 82.7065 52.5312 84.6856C47.9826 86.6648 43.1389 87.6544 38 87.6544ZM38 81.4044C46.6806 81.4044 54.059 78.3662 60.1354 72.2898C66.2118 66.2134 69.25 58.8349 69.25 50.1544C69.25 41.4738 66.2118 34.0953 60.1354 28.019C54.059 21.9426 46.6806 18.9044 38 18.9044C29.3194 18.9044 21.941 21.9426 15.8646 28.019C9.78819 34.0953 6.75 41.4738 6.75 50.1544C6.75 58.8349 9.78819 66.2134 15.8646 72.2898C21.941 78.3662 29.3194 81.4044 38 81.4044Z" fill="url(#paint0_linear_2_212)"/>
<defs>
<linearGradient id="paint0_linear_2_212" x1="0.5" y1="43.9563" x2="82.4767" y2="43.9563" gradientUnits="userSpaceOnUse">
<stop stop-color="#0F497E"/>
<stop offset="1" stop-color="#53CAF5"/>
</linearGradient>
</defs>
</svg>
