<svg width="88" height="88" viewBox="0 0 88 88" fill="none" xmlns="http://www.w3.org/2000/svg">
<path d="M76.2083 57.1126V23.571L54.3333 8.25846L32.4583 23.571V37.0085H26.2083V20.446L54.3333 0.341797L82.4583 20.446V57.1126H76.2083ZM56.4167 29.5085H60.5833V25.3418H56.4167V29.5085ZM48.0833 29.5085H52.25V25.3418H48.0833V29.5085ZM56.4167 37.8418H60.5833V33.6751H56.4167V37.8418ZM48.0833 37.8418H52.25V33.6751H48.0833V37.8418ZM54.9583 87.6335L22.5625 78.3626V84.3001H0.166666V43.2585H32.3542L58.9167 53.2585C60.7917 53.9529 62.3715 55.0814 63.6562 56.6439C64.941 58.2064 65.5833 60.446 65.5833 63.3626H77.4583C80.375 63.3626 82.8056 64.4043 84.75 66.4876C86.6944 68.571 87.6667 71.3835 87.6667 74.9251V77.6335L54.9583 87.6335ZM6.41667 78.0501H16.2083V49.5085H6.41667V78.0501ZM54.5417 81.1751L81.2083 73.0501C80.7917 71.7307 80.2708 70.8279 79.6458 70.3418C79.0208 69.8557 78.2917 69.6126 77.4583 69.6126H55.8958C53.8125 69.6126 51.8854 69.4737 50.1146 69.196C48.3437 68.9182 46.6597 68.5362 45.0625 68.0501L36.625 65.446L38.9167 59.4043L46.5208 61.9043C48.2569 62.4599 49.9062 62.8418 51.4687 63.0501C53.0312 63.2585 55.5139 63.3626 58.9167 63.3626C58.9167 62.5293 58.7604 61.7133 58.4479 60.9147C58.1354 60.1161 57.5972 59.5432 56.8333 59.196L31.3125 49.5085H22.5625V71.8001L54.5417 81.1751Z" fill="url(#paint0_linear_2_225)"/>
<defs>
<linearGradient id="paint0_linear_2_225" x1="0.166666" y1="43.9874" x2="95.8062" y2="43.9874" gradientUnits="userSpaceOnUse">
<stop stop-color="#0F497E"/>
<stop offset="1" stop-color="#53CAF5"/>
</linearGradient>
</defs>
</svg>
