<svg width="92" height="84" viewBox="0 0 92 84" fill="none" xmlns="http://www.w3.org/2000/svg">
<path d="M45.4792 77.5085C45.8264 77.5085 46.2257 77.4217 46.6771 77.2481C47.1285 77.0744 47.493 76.8487 47.7708 76.571L82.875 41.3626C83.7778 40.4599 84.4548 39.4356 84.9062 38.2897C85.3576 37.1439 85.5833 35.9807 85.5833 34.8001C85.5833 33.6196 85.3576 32.439 84.9062 31.2585C84.4548 30.0779 83.7778 29.0362 82.875 28.1335L64.125 9.38346C63.2222 8.48069 62.1805 7.8036 61 7.35221C59.8194 6.90082 58.6389 6.67513 57.4583 6.67513C56.2778 6.67513 55.1146 6.90082 53.9687 7.35221C52.8229 7.8036 51.7986 8.48069 50.8958 9.38346L49.0208 11.2585L57.4583 19.8001C58.3611 20.7724 59.1597 21.9008 59.8542 23.1855C60.5486 24.4703 60.8958 25.8765 60.8958 27.4043C60.8958 30.0432 59.8715 32.3696 57.8229 34.3835C55.7743 36.3974 53.4305 37.4043 50.7917 37.4043C49.0555 37.4043 47.6146 37.1439 46.4687 36.6231C45.3229 36.1022 44.2639 35.3557 43.2917 34.3835L35.6875 26.7793L16.8333 45.6335C16.4861 45.9807 16.243 46.3453 16.1042 46.7272C15.9653 47.1092 15.8958 47.5085 15.8958 47.9251C15.8958 48.8279 16.191 49.5744 16.7812 50.1647C17.3715 50.755 18.118 51.0501 19.0208 51.0501C19.4375 51.0501 19.8368 50.946 20.2187 50.7376C20.6007 50.5293 20.9305 50.2862 21.2083 50.0085L35.5833 35.6335L39.9583 40.0085L25.6875 54.2793C25.3403 54.6265 25.0972 55.0085 24.9583 55.4251C24.8194 55.8418 24.75 56.2585 24.75 56.6751C24.75 57.5085 25.0625 58.2376 25.6875 58.8626C26.3125 59.4876 27.0417 59.8001 27.875 59.8001C28.2917 59.8001 28.691 59.7133 29.0729 59.5397C29.4548 59.3661 29.7847 59.1404 30.0625 58.8626L44.4375 44.4876L48.8125 48.8626L34.5417 63.1335C34.2639 63.4112 34.0382 63.7758 33.8646 64.2272C33.691 64.6786 33.6042 65.1126 33.6042 65.5293C33.6042 66.3626 33.9167 67.0918 34.5417 67.7168C35.1667 68.3418 35.8958 68.6543 36.7292 68.6543C37.1458 68.6543 37.5278 68.5849 37.875 68.446C38.2222 68.3071 38.5694 68.064 38.9167 67.7168L53.2917 53.3418L57.6667 57.7168L43.2917 72.0918C42.9444 72.439 42.7014 72.821 42.5625 73.2376C42.4236 73.6543 42.3542 74.0362 42.3542 74.3835C42.3542 75.3557 42.6319 76.1196 43.1875 76.6751C43.743 77.2307 44.5069 77.5085 45.4792 77.5085ZM45.4792 83.7585C43.1875 83.7585 41.1389 82.9078 39.3333 81.2064C37.5278 79.505 36.4514 77.4043 36.1042 74.9043C33.743 74.5571 31.7639 73.5849 30.1667 71.9876C28.5694 70.3904 27.5972 68.4112 27.25 66.0501C24.8889 65.7029 22.9271 64.7133 21.3646 63.0814C19.8021 61.4494 18.8472 59.4876 18.5 57.196C15.9305 56.8487 13.8125 55.8071 12.1458 54.071C10.4792 52.3349 9.64582 50.2515 9.64582 47.821C9.64582 46.6404 9.87152 45.4599 10.3229 44.2793C10.7743 43.0987 11.4514 42.0571 12.3542 41.1543L35.6875 17.821L47.1458 29.2793C47.7014 29.8349 48.309 30.2689 48.9687 30.5814C49.6285 30.8939 50.2708 31.0501 50.8958 31.0501C51.7986 31.0501 52.6493 30.6508 53.4479 29.8522C54.2465 29.0536 54.6458 28.2029 54.6458 27.3001C54.6458 26.8835 54.5243 26.4147 54.2812 25.8939C54.0382 25.373 53.6389 24.8349 53.0833 24.2793L38.1875 9.38346C37.2847 8.48069 36.243 7.8036 35.0625 7.35221C33.8819 6.90082 32.7014 6.67513 31.5208 6.67513C30.3403 6.67513 29.1771 6.90082 28.0312 7.35221C26.8854 7.8036 25.8611 8.48069 24.9583 9.38346L9.12499 25.2168C8.15277 26.189 7.47568 27.2133 7.09374 28.2897C6.71179 29.3661 6.4861 30.564 6.41666 31.8835C6.34721 33.2724 6.60763 34.6092 7.19791 35.8939C7.78818 37.1786 8.49999 38.3418 9.33332 39.3835L4.85416 43.8626C3.46527 42.3349 2.3368 40.4946 1.46874 38.3418C0.600684 36.189 0.166656 34.0015 0.166656 31.7793C0.166656 29.696 0.565962 27.6994 1.36457 25.7897C2.16318 23.88 3.29166 22.196 4.74999 20.7376L20.4792 5.00846C22.0069 3.48069 23.743 2.35221 25.6875 1.62305C27.6319 0.893879 29.6111 0.529297 31.625 0.529297C33.6389 0.529297 35.6007 0.893879 37.5104 1.62305C39.4201 2.35221 41.1389 3.48069 42.6667 5.00846L44.5417 6.88346L46.4167 5.00846C47.9444 3.48069 49.6805 2.35221 51.625 1.62305C53.5694 0.893879 55.5486 0.529297 57.5625 0.529297C59.5764 0.529297 61.5382 0.893879 63.4479 1.62305C65.3576 2.35221 67.0764 3.48069 68.6041 5.00846L87.25 23.6543C88.7778 25.1821 89.9236 26.9182 90.6875 28.8626C91.4514 30.8071 91.8333 32.7862 91.8333 34.8001C91.8333 36.814 91.4514 38.7758 90.6875 40.6856C89.9236 42.5953 88.7778 44.314 87.25 45.8418L52.1458 80.946C51.243 81.8488 50.2187 82.5432 49.0729 83.0293C47.9271 83.5154 46.7292 83.7585 45.4792 83.7585Z" fill="url(#paint0_linear_2_221)"/>
<defs>
<linearGradient id="paint0_linear_2_221" x1="0.166657" y1="42.1437" x2="100.36" y2="42.1437" gradientUnits="userSpaceOnUse">
<stop stop-color="#0F497E"/>
<stop offset="1" stop-color="#53CAF5"/>
</linearGradient>
</defs>
</svg>
